<svg version="1.0" xmlns="http://www.w3.org/2000/svg" width="300.000000pt" height="300.000000pt" viewBox="0 0 300.000000 300.000000" preserveAspectRatio="xMidYMid meet">
  <metadata>
Created by potrace 1.10, written by Peter Selinger 2001-2011
</metadata>
  <g transform="translate(0.000000,300.000000) scale(0.100000,-0.100000)" fill="#000000" stroke="none">
    <path d="M1458 1810 c-70 -21 -118 -88 -118 -166 0 -52 22 -85 84 -128 53 -36
67 -58 47 -70 -4 -3 -25 4 -47 14 -52 27 -61 25 -84 -12 -34 -55 -27 -76 33
-103 68 -32 148 -34 197 -4 43 27 57 44 70 90 15 55 2 97 -46 146 l-43 43 37
0 c21 0 43 5 50 12 16 16 15 81 -3 124 -22 54 -99 78 -177 54z m143 -39 c24
-25 29 -37 29 -80 l0 -51 -49 0 c-49 0 -50 1 -53 32 -4 38 -33 51 -43 19 -11
-35 3 -57 59 -94 63 -42 91 -92 82 -146 -12 -74 -63 -112 -150 -112 -46 0
-146 32 -146 47 0 3 9 22 20 43 l19 39 38 -19 c20 -10 50 -19 65 -19 24 0 28
4 28 29 0 24 -9 35 -58 66 -65 41 -78 57 -87 106 -4 25 0 46 17 79 32 62 77
90 145 90 47 0 59 -4 84 -29z" />
    <path d="M1535 1550 c3 -5 8 -10 11 -10 2 0 4 5 4 10 0 6 -5 10 -11 10 -5 0
-7 -4 -4 -10z" />
    <path d="M1556 1513 c-6 -14 -5 -15 5 -6 7 7 10 15 7 18 -3 3 -9 -2 -12 -12z" />
    <path d="M1565 1470 c3 -5 11 -10 16 -10 6 0 7 5 4 10 -3 6 -11 10 -16 10 -6
0 -7 -4 -4 -10z" />
    <path d="M1560 1434 c0 -8 5 -12 10 -9 6 3 10 10 10 16 0 5 -4 9 -10 9 -5 0
-10 -7 -10 -16z" />
    <path d="M1530 1400 c0 -5 5 -10 10 -10 6 0 10 5 10 10 0 6 -4 10 -10 10 -5 0
-10 -4 -10 -10z" />
  </g>
</svg>